<svg xmlns="http://www.w3.org/2000/svg" width="1000" height="440" viewBox="0 0 1000 440">
<rect width="1000" height="440" fill="#f8fafc"/>
<text x="40" y="40" font-size="28" font-family="Arial" fill="#0f172a">Part B Architecture</text>
<rect x="60" y="140" width="140" height="60" rx="10" fill="#dbeafe" stroke="#2563eb"/><text x="105" y="177" font-size="22" font-family="Arial">Client</text>
<rect x="250" y="140" width="180" height="60" rx="10" fill="#dcfce7" stroke="#16a34a"/><text x="300" y="177" font-size="22" font-family="Arial">Traefik</text>
<rect x="490" y="70" width="180" height="60" rx="10" fill="#fef3c7" stroke="#d97706"/><text x="530" y="107" font-size="22" font-family="Arial">shop-web</text>
<rect x="490" y="160" width="180" height="60" rx="10" fill="#fde68a" stroke="#ca8a04"/><text x="535" y="197" font-size="22" font-family="Arial">shop-api</text>
<rect x="490" y="250" width="180" height="60" rx="10" fill="#e9d5ff" stroke="#9333ea"/><text x="515" y="287" font-size="22" font-family="Arial">order-worker</text>
<rect x="760" y="120" width="160" height="60" rx="10" fill="#fecaca" stroke="#dc2626"/><text x="805" y="157" font-size="22" font-family="Arial">MariaDB</text>
<rect x="760" y="240" width="160" height="60" rx="10" fill="#ddd6fe" stroke="#7c3aed"/><text x="820" y="277" font-size="22" font-family="Arial">Redis</text>
<line x1="200" y1="170" x2="250" y2="170" stroke="#334155" stroke-width="3"/>
<line x1="430" y1="170" x2="490" y2="100" stroke="#334155" stroke-width="3"/>
<line x1="430" y1="170" x2="490" y2="190" stroke="#334155" stroke-width="3"/>
<line x1="430" y1="170" x2="490" y2="280" stroke="#334155" stroke-width="3"/>
<line x1="670" y1="190" x2="760" y2="150" stroke="#334155" stroke-width="3"/>
<line x1="670" y1="190" x2="760" y2="270" stroke="#334155" stroke-width="3"/>
<line x1="670" y1="280" x2="760" y2="270" stroke="#334155" stroke-width="3"/>
<text x="60" y="370" font-size="18" font-family="Arial" fill="#334155">Extra focus: worker failure, rescheduling, rollback, drain/active</text>
</svg>
