<svg xmlns="http://www.w3.org/2000/svg" width="1000" height="420" viewBox="0 0 1000 420">
<rect width="1000" height="420" fill="#f8fafc"/>
<text x="40" y="40" font-size="28" font-family="Arial" fill="#0f172a">Part A Architecture</text>
<rect x="60" y="120" width="140" height="60" rx="10" fill="#dbeafe" stroke="#2563eb"/><text x="105" y="155" font-size="22" font-family="Arial">Client</text>
<rect x="250" y="120" width="180" height="60" rx="10" fill="#dcfce7" stroke="#16a34a"/><text x="300" y="155" font-size="22" font-family="Arial">Traefik</text>
<rect x="490" y="70" width="180" height="60" rx="10" fill="#fef3c7" stroke="#d97706"/><text x="530" y="107" font-size="22" font-family="Arial">shop-web</text>
<rect x="490" y="170" width="180" height="60" rx="10" fill="#fde68a" stroke="#ca8a04"/><text x="535" y="207" font-size="22" font-family="Arial">shop-api</text>
<rect x="760" y="110" width="160" height="60" rx="10" fill="#fecaca" stroke="#dc2626"/><text x="805" y="147" font-size="22" font-family="Arial">MariaDB</text>
<rect x="760" y="220" width="160" height="60" rx="10" fill="#ddd6fe" stroke="#7c3aed"/><text x="820" y="257" font-size="22" font-family="Arial">Redis</text>
<line x1="200" y1="150" x2="250" y2="150" stroke="#334155" stroke-width="3"/>
<line x1="430" y1="150" x2="490" y2="100" stroke="#334155" stroke-width="3"/>
<line x1="430" y1="150" x2="490" y2="200" stroke="#334155" stroke-width="3"/>
<line x1="670" y1="200" x2="760" y2="140" stroke="#334155" stroke-width="3"/>
<line x1="670" y1="200" x2="760" y2="250" stroke="#334155" stroke-width="3"/>
<text x="60" y="340" font-size="18" font-family="Arial" fill="#334155">Networks: edge / app / data</text>
</svg>
